<?xml version="1.0" encoding="utf-8" standalone="no"?>
<!DOCTYPE svg PUBLIC "-//W3C//DTD SVG 1.1//EN"
  "http://www.w3.org/Graphics/SVG/1.1/DTD/svg11.dtd">
<svg xmlns:xlink="http://www.w3.org/1999/xlink" width="432pt" height="288pt" viewBox="0 0 432 288" xmlns="http://www.w3.org/2000/svg" version="1.1">
 <metadata>
  <rdf:RDF xmlns:dc="http://purl.org/dc/elements/1.1/" xmlns:cc="http://creativecommons.org/ns#" xmlns:rdf="http://www.w3.org/1999/02/22-rdf-syntax-ns#">
   <cc:Work>
    <dc:type rdf:resource="http://purl.org/dc/dcmitype/StillImage"/>
    <dc:date>2024-04-18T16:30:28.238959</dc:date>
    <dc:format>image/svg+xml</dc:format>
    <dc:creator>
     <cc:Agent>
      <dc:title>Matplotlib v3.5.2, https://matplotlib.org/</dc:title>
     </cc:Agent>
    </dc:creator>
   </cc:Work>
  </rdf:RDF>
 </metadata>
 <defs>
  <style type="text/css">*{stroke-linejoin: round; stroke-linecap: butt}</style>
 </defs>
 <g id="figure_1">
  <g id="patch_1">
   <path d="M 0 288 
L 432 288 
L 432 0 
L 0 0 
z
" style="fill: #ffffff"/>
  </g>
  <g id="axes_1">
   <g id="patch_2">
    <path d="M 54 252 
L 388.8 252 
L 388.8 34.56 
L 54 34.56 
z
" style="fill: #ffffff"/>
   </g>
   <g id="PolyCollection_1">
    <defs>
     <path id="m3e943090b2" d="M 69.218182 -48.878247 
L 69.218182 -48.116018 
L 72.292562 -48.401854 
L 75.366942 -49.164083 
L 78.441322 -49.449919 
L 81.515702 -49.926312 
L 84.590083 -50.021591 
L 87.664463 -50.307427 
L 90.738843 -50.664722 
L 93.813223 -50.78382 
L 96.887603 -51.164935 
L 99.961983 -51.546049 
L 103.036364 -52.213 
L 106.110744 -52.879951 
L 109.185124 -53.451623 
L 112.259504 -54.023295 
L 115.333884 -54.642606 
L 118.408264 -55.333376 
L 121.482645 -56.095605 
L 124.557025 -56.214704 
L 127.631405 -56.691097 
L 130.705785 -57.238949 
L 133.780165 -57.929719 
L 136.854545 -58.501391 
L 139.928926 -58.787227 
L 143.003306 -59.33508 
L 146.077686 -59.644735 
L 149.152066 -60.02585 
L 152.226446 -60.859538 
L 155.300826 -61.550308 
L 158.375207 -62.12198 
L 161.449587 -62.669833 
L 164.523967 -63.360603 
L 167.598347 -63.884636 
L 170.672727 -64.408668 
L 173.747107 -65.170897 
L 176.821488 -66.147504 
L 179.895868 -66.981192 
L 182.970248 -68.029257 
L 186.044628 -69.053503 
L 189.119008 -69.815732 
L 192.193388 -70.887617 
L 195.267769 -72.007141 
L 198.342149 -73.079026 
L 201.416529 -74.103272 
L 204.490909 -75.341894 
L 207.565289 -76.580517 
L 210.639669 -77.74768 
L 213.71405 -78.605188 
L 216.78843 -79.367417 
L 219.86281 -80.796597 
L 222.93719 -82.03522 
L 226.01157 -83.654957 
L 229.08595 -85.084137 
L 232.160331 -86.227481 
L 235.234711 -87.7043 
L 238.309091 -88.752365 
L 241.383471 -90.276824 
L 244.457851 -91.25343 
L 247.532231 -92.611151 
L 250.606612 -94.326167 
L 253.680992 -96.374658 
L 256.755372 -98.232592 
L 259.829752 -100.185804 
L 262.904132 -102.210475 
L 265.978512 -104.116049 
L 269.052893 -106.093081 
L 272.127273 -107.927195 
L 275.201653 -109.832768 
L 278.276033 -111.85744 
L 281.350413 -114.477603 
L 284.424793 -116.311717 
L 287.499174 -118.860421 
L 290.573554 -121.7426 
L 293.647934 -124.720058 
L 296.722314 -126.887648 
L 299.796694 -129.483991 
L 302.871074 -132.318531 
L 305.945455 -135.843842 
L 309.019835 -138.273447 
L 312.094215 -141.465282 
L 315.168595 -144.895314 
L 318.242975 -148.611182 
L 321.317355 -151.755377 
L 324.391736 -155.161589 
L 327.466116 -160.306637 
L 330.540496 -164.30834 
L 333.614876 -168.810257 
L 336.689256 -173.502731 
L 339.763636 -178.099926 
L 342.838017 -182.363646 
L 345.912397 -187.175218 
L 348.986777 -191.343659 
L 352.061157 -197.01274 
L 355.135537 -201.681394 
L 358.209917 -206.469146 
L 361.284298 -212.066767 
L 364.358678 -217.783487 
L 367.433058 -223.166731 
L 370.507438 -229.050188 
L 373.581818 -234.361973 
L 373.581818 -243.556364 
L 373.581818 -243.556364 
L 370.507438 -238.006382 
L 367.433058 -231.813269 
L 364.358678 -226.501484 
L 361.284298 -221.070601 
L 358.209917 -215.091865 
L 355.135537 -209.803899 
L 352.061157 -204.658852 
L 348.986777 -199.275608 
L 345.912397 -194.392576 
L 342.838017 -188.842595 
L 339.763636 -184.483596 
L 336.689256 -179.791122 
L 333.614876 -175.313025 
L 330.540496 -171.025486 
L 327.466116 -166.857044 
L 324.391736 -162.760062 
L 321.317355 -159.40149 
L 318.242975 -155.11395 
L 315.168595 -151.016968 
L 312.094215 -147.420198 
L 309.019835 -144.228363 
L 305.945455 -140.845971 
L 302.871074 -137.558857 
L 299.796694 -134.748137 
L 296.722314 -132.270892 
L 293.647934 -129.674548 
L 290.573554 -127.149664 
L 287.499174 -124.767698 
L 284.424793 -122.528649 
L 281.350413 -120.051404 
L 278.276033 -117.859995 
L 275.201653 -115.40657 
L 272.127273 -113.024603 
L 269.052893 -110.714096 
L 265.978512 -108.641785 
L 262.904132 -106.83149 
L 259.829752 -104.782999 
L 256.755372 -103.30618 
L 253.680992 -101.281509 
L 250.606612 -99.518853 
L 247.532231 -97.756198 
L 244.457851 -96.327018 
L 241.383471 -94.80256 
L 238.309091 -93.039905 
L 235.234711 -91.991839 
L 232.160331 -91.205791 
L 229.08595 -89.776611 
L 226.01157 -88.609447 
L 222.93719 -87.01353 
L 219.86281 -85.58435 
L 216.78843 -84.15517 
L 213.71405 -82.821269 
L 210.639669 -81.749384 
L 207.565289 -80.60604 
L 204.490909 -79.843811 
L 201.416529 -78.795745 
L 198.342149 -77.390385 
L 195.267769 -75.842107 
L 192.193388 -74.22237 
L 189.119008 -72.745551 
L 186.044628 -71.078174 
L 182.970248 -69.506076 
L 179.895868 -68.219814 
L 176.821488 -67.552864 
L 173.747107 -66.695356 
L 170.672727 -66.218963 
L 167.598347 -65.552012 
L 164.523967 -65.099438 
L 161.449587 -64.599225 
L 158.375207 -64.31339 
L 155.300826 -63.646439 
L 152.226446 -63.074767 
L 149.152066 -62.526915 
L 146.077686 -61.478849 
L 143.003306 -60.835719 
L 139.928926 -60.502243 
L 136.854545 -60.168768 
L 133.780165 -59.740014 
L 130.705785 -59.168342 
L 127.631405 -58.429932 
L 124.557025 -57.953539 
L 121.482645 -57.286589 
L 118.408264 -56.786376 
L 115.333884 -55.928868 
L 112.259504 -55.166638 
L 109.185124 -54.523507 
L 106.110744 -53.475442 
L 103.036364 -52.975229 
L 99.961983 -52.975229 
L 96.887603 -52.403557 
L 93.813223 -51.641328 
L 90.738843 -51.641328 
L 87.664463 -51.355492 
L 84.590083 -50.78382 
L 81.515702 -50.78382 
L 78.441322 -50.307427 
L 75.366942 -50.021591 
L 72.292562 -49.831034 
L 69.218182 -48.878247 
z
" style="stroke: #000000; stroke-opacity: 0.5"/>
    </defs>
    <g clip-path="url(#p9792f88c43)">
     <use xlink:href="#m3e943090b2" x="0" y="288" style="fill-opacity: 0.5; stroke: #000000; stroke-opacity: 0.5"/>
    </g>
   </g>
   <g id="PolyCollection_2">
    <defs>
     <path id="m0ed15c02b2" d="M 69.218182 -48.711509 
L 69.218182 -48.020739 
L 72.292562 -48.878247 
L 75.366942 -49.545198 
L 78.441322 -49.449919 
L 81.515702 -49.640476 
L 84.590083 -49.807214 
L 87.664463 -49.926312 
L 90.738843 -49.926312 
L 93.813223 -50.11687 
L 96.887603 -49.926312 
L 99.961983 -50.402706 
L 103.036364 -50.212148 
L 106.110744 -50.593263 
L 109.185124 -50.974377 
L 112.259504 -51.069656 
L 115.333884 -51.546049 
L 118.408264 -52.117721 
L 121.482645 -52.308279 
L 124.557025 -52.403557 
L 127.631405 -52.689393 
L 130.705785 -53.523082 
L 133.780165 -54.213852 
L 136.854545 -54.880802 
L 139.928926 -55.261917 
L 143.003306 -55.547753 
L 146.077686 -56.119425 
L 149.152066 -56.309982 
L 152.226446 -56.214704 
L 155.300826 -56.50054 
L 158.375207 -56.786376 
L 161.449587 -57.429507 
L 164.523967 -57.834441 
L 167.598347 -58.096457 
L 170.672727 -58.215555 
L 173.747107 -58.59667 
L 176.821488 -59.144522 
L 179.895868 -59.454178 
L 182.970248 -59.644735 
L 186.044628 -60.383145 
L 189.119008 -60.788079 
L 192.193388 -61.073915 
L 195.267769 -61.550308 
L 198.342149 -61.931423 
L 201.416529 -62.312538 
L 204.490909 -62.788931 
L 207.565289 -63.336783 
L 210.639669 -64.384848 
L 213.71405 -65.218537 
L 216.78843 -65.837848 
L 219.86281 -66.314241 
L 222.93719 -67.028831 
L 226.01157 -67.743421 
L 229.08595 -67.8387 
L 232.160331 -68.577109 
L 235.234711 -68.934404 
L 238.309091 -69.434617 
L 241.383471 -69.839552 
L 244.457851 -70.030109 
L 247.532231 -70.101568 
L 250.606612 -70.482683 
L 253.680992 -71.054355 
L 256.755372 -71.649846 
L 259.829752 -72.007141 
L 262.904132 -72.292977 
L 265.978512 -72.674092 
L 269.052893 -72.959928 
L 272.127273 -73.555419 
L 275.201653 -73.745977 
L 278.276033 -74.127091 
L 281.350413 -74.770222 
L 284.424793 -75.246615 
L 287.499174 -75.937386 
L 290.573554 -76.509058 
L 293.647934 -76.985451 
L 296.722314 -76.890172 
L 299.796694 -76.985451 
L 302.871074 -77.461844 
L 305.945455 -77.819139 
L 309.019835 -78.319352 
L 312.094215 -78.605188 
L 315.168595 -79.081581 
L 318.242975 -79.438876 
L 321.317355 -79.819991 
L 324.391736 -80.224925 
L 327.466116 -80.796597 
L 330.540496 -81.249171 
L 333.614876 -81.916121 
L 336.689256 -82.225777 
L 339.763636 -82.678351 
L 342.838017 -83.273842 
L 345.912397 -83.821695 
L 348.986777 -84.274268 
L 352.061157 -84.655383 
L 355.135537 -85.250874 
L 358.209917 -85.798727 
L 361.284298 -86.489497 
L 364.358678 -87.061169 
L 367.433058 -87.466103 
L 370.507438 -87.942497 
L 373.581818 -88.680906 
L 373.581818 -91.682184 
L 373.581818 -91.682184 
L 370.507438 -91.22961 
L 367.433058 -90.800856 
L 364.358678 -90.253004 
L 361.284298 -89.84807 
L 358.209917 -89.466955 
L 355.135537 -89.08584 
L 352.061157 -88.537988 
L 348.986777 -87.942497 
L 345.912397 -87.275546 
L 342.838017 -86.98971 
L 339.763636 -86.2513 
L 336.689256 -85.965464 
L 333.614876 -85.679628 
L 330.540496 -85.107956 
L 327.466116 -84.703022 
L 324.391736 -84.15517 
L 321.317355 -83.4644 
L 318.242975 -82.892728 
L 315.168595 -82.344875 
L 312.094215 -82.03522 
L 309.019835 -81.582646 
L 305.945455 -81.392089 
L 302.871074 -80.891876 
L 299.796694 -80.320204 
L 296.722314 -79.962909 
L 293.647934 -79.462696 
L 290.573554 -79.010122 
L 287.499174 -78.43845 
L 284.424793 -77.842959 
L 281.350413 -77.271287 
L 278.276033 -76.818713 
L 275.201653 -76.437599 
L 272.127273 -75.842107 
L 269.052893 -75.460992 
L 265.978512 -75.103697 
L 262.904132 -74.88932 
L 259.829752 -74.24619 
L 256.755372 -73.745977 
L 253.680992 -73.317223 
L 250.606612 -73.269583 
L 247.532231 -72.412075 
L 244.457851 -71.935682 
L 241.383471 -71.197272 
L 238.309091 -70.554142 
L 235.234711 -70.220666 
L 232.160331 -69.839552 
L 229.08595 -69.26788 
L 226.01157 -68.886765 
L 222.93719 -68.434191 
L 219.86281 -67.600503 
L 216.78843 -67.076471 
L 213.71405 -66.218963 
L 210.639669 -65.456733 
L 207.565289 -64.837422 
L 204.490909 -64.027554 
L 201.416529 -63.57498 
L 198.342149 -62.788931 
L 195.267769 -62.312538 
L 192.193388 -62.1458 
L 189.119008 -61.836144 
L 186.044628 -61.264472 
L 182.970248 -61.169194 
L 179.895868 -60.597522 
L 176.821488 -59.954391 
L 173.747107 -59.477998 
L 170.672727 -59.168342 
L 167.598347 -58.977785 
L 164.523967 -58.882506 
L 161.449587 -58.59667 
L 158.375207 -58.406113 
L 155.300826 -58.215555 
L 152.226446 -57.643883 
L 149.152066 -57.262769 
L 146.077686 -56.976933 
L 143.003306 -56.714917 
L 139.928926 -56.50054 
L 136.854545 -56.024146 
L 133.780165 -55.452474 
L 130.705785 -55.381015 
L 127.631405 -54.118573 
L 124.557025 -53.380164 
L 121.482645 -52.90377 
L 118.408264 -52.522656 
L 115.333884 -52.403557 
L 112.259504 -52.498836 
L 109.185124 -52.141541 
L 106.110744 -51.950984 
L 103.036364 -51.47459 
L 99.961983 -51.069656 
L 96.887603 -51.069656 
L 93.813223 -51.069656 
L 90.738843 -50.974377 
L 87.664463 -50.497984 
L 84.590083 -50.212148 
L 81.515702 -50.497984 
L 78.441322 -50.402706 
L 75.366942 -50.021591 
L 72.292562 -49.545198 
L 69.218182 -48.711509 
z
" style="stroke: #ff0000; stroke-opacity: 0.5"/>
    </defs>
    <g clip-path="url(#p9792f88c43)">
     <use xlink:href="#m0ed15c02b2" x="0" y="288" style="fill: #ff0000; fill-opacity: 0.5; stroke: #ff0000; stroke-opacity: 0.5"/>
    </g>
   </g>
   <g id="PolyCollection_3">
    <defs>
     <path id="m136bd5eea5" d="M 69.218182 -48.945365 
L 69.218182 -48.292196 
L 72.292562 -48.333019 
L 75.366942 -48.088081 
L 78.441322 -47.80232 
L 81.515702 -47.639028 
L 84.590083 -47.516558 
L 87.664463 -47.506353 
L 90.738843 -47.394089 
L 93.813223 -47.312443 
L 96.887603 -47.230797 
L 99.961983 -47.179768 
L 103.036364 -46.985859 
L 106.110744 -46.985859 
L 109.185124 -47.026682 
L 112.259504 -46.781743 
L 115.333884 -46.781743 
L 118.408264 -46.74092 
L 121.482645 -46.74092 
L 124.557025 -46.618451 
L 127.631405 -46.659274 
L 130.705785 -46.577628 
L 133.780165 -46.526599 
L 136.854545 -46.577628 
L 139.928926 -46.618451 
L 143.003306 -46.700097 
L 146.077686 -46.700097 
L 149.152066 -46.700097 
L 152.226446 -46.659274 
L 155.300826 -46.659274 
L 158.375207 -46.659274 
L 161.449587 -46.659274 
L 164.523967 -46.618451 
L 167.598347 -46.618451 
L 170.672727 -46.659274 
L 173.747107 -46.659274 
L 176.821488 -46.577628 
L 179.895868 -46.618451 
L 182.970248 -46.659274 
L 186.044628 -46.618451 
L 189.119008 -46.649069 
L 192.193388 -46.618451 
L 195.267769 -46.577628 
L 198.342149 -46.495982 
L 201.416529 -46.495982 
L 204.490909 -46.495982 
L 207.565289 -46.495982 
L 210.639669 -46.485776 
L 213.71405 -46.455159 
L 216.78843 -46.455159 
L 219.86281 -46.455159 
L 222.93719 -46.455159 
L 226.01157 -46.495982 
L 229.08595 -46.455159 
L 232.160331 -46.414336 
L 235.234711 -46.373513 
L 238.309091 -46.33269 
L 241.383471 -46.373513 
L 244.457851 -46.373513 
L 247.532231 -46.373513 
L 250.606612 -46.414336 
L 253.680992 -46.373513 
L 256.755372 -46.373513 
L 259.829752 -46.373513 
L 262.904132 -46.373513 
L 265.978512 -46.291867 
L 269.052893 -46.281661 
L 272.127273 -46.251044 
L 275.201653 -46.210221 
L 278.276033 -46.251044 
L 281.350413 -46.210221 
L 284.424793 -46.200015 
L 287.499174 -46.210221 
L 290.573554 -46.251044 
L 293.647934 -46.210221 
L 296.722314 -46.240838 
L 299.796694 -46.251044 
L 302.871074 -46.291867 
L 305.945455 -46.322484 
L 309.019835 -46.33269 
L 312.094215 -46.373513 
L 315.168595 -46.455159 
L 318.242975 -46.485776 
L 321.317355 -46.455159 
L 324.391736 -46.495982 
L 327.466116 -46.495982 
L 330.540496 -46.495982 
L 333.614876 -46.526599 
L 336.689256 -46.536805 
L 339.763636 -46.618451 
L 342.838017 -46.649069 
L 345.912397 -46.689892 
L 348.986777 -46.700097 
L 352.061157 -46.781743 
L 355.135537 -46.822567 
L 358.209917 -46.822567 
L 361.284298 -46.945036 
L 364.358678 -47.016476 
L 367.433058 -47.098122 
L 370.507438 -47.108328 
L 373.581818 -47.098122 
L 373.581818 -50.710962 
L 373.581818 -50.710962 
L 370.507438 -50.466024 
L 367.433058 -50.343555 
L 364.358678 -50.108822 
L 361.284298 -49.935324 
L 358.209917 -49.853678 
L 355.135537 -49.731209 
L 352.061157 -49.445448 
L 348.986777 -49.404625 
L 345.912397 -49.241332 
L 342.838017 -48.996394 
L 339.763636 -48.873925 
L 336.689256 -48.700427 
L 333.614876 -48.54734 
L 330.540496 -48.394254 
L 327.466116 -48.21055 
L 324.391736 -48.088081 
L 321.317355 -47.924789 
L 318.242975 -47.883966 
L 315.168595 -47.761497 
L 312.094215 -47.730879 
L 309.019835 -47.639028 
L 305.945455 -47.53697 
L 302.871074 -47.475735 
L 299.796694 -47.353266 
L 296.722314 -47.230797 
L 293.647934 -47.118534 
L 290.573554 -47.026682 
L 287.499174 -46.985859 
L 284.424793 -46.945036 
L 281.350413 -46.924624 
L 278.276033 -46.945036 
L 275.201653 -46.904213 
L 272.127273 -46.781743 
L 269.052893 -46.74092 
L 265.978512 -46.74092 
L 262.904132 -46.751126 
L 259.829752 -46.710303 
L 256.755372 -46.700097 
L 253.680992 -46.700097 
L 250.606612 -46.659274 
L 247.532231 -46.577628 
L 244.457851 -46.66948 
L 241.383471 -46.781743 
L 238.309091 -46.904213 
L 235.234711 -46.996065 
L 232.160331 -47.026682 
L 229.08595 -46.955241 
L 226.01157 -46.86339 
L 222.93719 -46.822567 
L 219.86281 -46.822567 
L 216.78843 -46.86339 
L 213.71405 -46.86339 
L 210.639669 -46.904213 
L 207.565289 -46.955241 
L 204.490909 -46.955241 
L 201.416529 -46.985859 
L 198.342149 -46.985859 
L 195.267769 -46.955241 
L 192.193388 -46.985859 
L 189.119008 -46.996065 
L 186.044628 -46.945036 
L 182.970248 -46.873595 
L 179.895868 -46.86339 
L 176.821488 -46.86339 
L 173.747107 -46.822567 
L 170.672727 -46.832772 
L 167.598347 -46.822567 
L 164.523967 -46.822567 
L 161.449587 -46.904213 
L 158.375207 -46.945036 
L 155.300826 -46.904213 
L 152.226446 -46.86339 
L 149.152066 -46.86339 
L 146.077686 -46.86339 
L 143.003306 -46.904213 
L 139.928926 -46.86339 
L 136.854545 -46.945036 
L 133.780165 -47.026682 
L 130.705785 -47.067505 
L 127.631405 -47.118534 
L 124.557025 -47.189974 
L 121.482645 -47.230797 
L 118.408264 -47.20018 
L 115.333884 -47.230797 
L 112.259504 -47.353266 
L 109.185124 -47.312443 
L 106.110744 -47.353266 
L 103.036364 -47.598205 
L 99.961983 -47.557381 
L 96.887603 -47.475735 
L 93.813223 -47.639028 
L 90.738843 -47.720674 
L 87.664463 -47.924789 
L 84.590083 -48.006435 
L 81.515702 -48.098287 
L 78.441322 -48.21055 
L 75.366942 -48.333019 
L 72.292562 -48.863719 
L 69.218182 -48.945365 
z
" style="stroke: #000000; stroke-opacity: 0.5"/>
    </defs>
    <g clip-path="url(#p9792f88c43)">
     <use xlink:href="#m136bd5eea5" x="0" y="288" style="fill-opacity: 0.5; stroke: #000000; stroke-opacity: 0.5"/>
    </g>
   </g>
   <g id="PolyCollection_4">
    <defs>
     <path id="mda8b1fc313" d="M 69.218182 -48.863719 
L 69.218182 -48.537135 
L 72.292562 -48.128904 
L 75.366942 -48.006435 
L 78.441322 -47.843143 
L 81.515702 -47.80232 
L 84.590083 -47.883966 
L 87.664463 -47.720674 
L 90.738843 -47.679851 
L 93.813223 -47.639028 
L 96.887603 -47.46553 
L 99.961983 -47.394089 
L 103.036364 -47.434912 
L 106.110744 -47.353266 
L 109.185124 -47.383884 
L 112.259504 -47.149151 
L 115.333884 -47.189974 
L 118.408264 -46.985859 
L 121.482645 -46.822567 
L 124.557025 -46.781743 
L 127.631405 -46.74092 
L 130.705785 -46.700097 
L 133.780165 -46.689892 
L 136.854545 -46.659274 
L 139.928926 -46.618451 
L 143.003306 -46.689892 
L 146.077686 -46.700097 
L 149.152066 -46.659274 
L 152.226446 -46.649069 
L 155.300826 -46.700097 
L 158.375207 -46.689892 
L 161.449587 -46.700097 
L 164.523967 -46.730715 
L 167.598347 -46.74092 
L 170.672727 -46.700097 
L 173.747107 -46.700097 
L 176.821488 -46.618451 
L 179.895868 -46.577628 
L 182.970248 -46.536805 
L 186.044628 -46.577628 
L 189.119008 -46.536805 
L 192.193388 -46.495982 
L 195.267769 -46.577628 
L 198.342149 -46.577628 
L 201.416529 -46.577628 
L 204.490909 -46.608246 
L 207.565289 -46.577628 
L 210.639669 -46.536805 
L 213.71405 -46.577628 
L 216.78843 -46.577628 
L 219.86281 -46.495982 
L 222.93719 -46.455159 
L 226.01157 -46.455159 
L 229.08595 -46.455159 
L 232.160331 -46.495982 
L 235.234711 -46.455159 
L 238.309091 -46.455159 
L 241.383471 -46.414336 
L 244.457851 -46.414336 
L 247.532231 -46.373513 
L 250.606612 -46.373513 
L 253.680992 -46.373513 
L 256.755372 -46.373513 
L 259.829752 -46.363307 
L 262.904132 -46.363307 
L 265.978512 -46.33269 
L 269.052893 -46.291867 
L 272.127273 -46.291867 
L 275.201653 -46.291867 
L 278.276033 -46.291867 
L 281.350413 -46.322484 
L 284.424793 -46.33269 
L 287.499174 -46.291867 
L 290.573554 -46.33269 
L 293.647934 -46.291867 
L 296.722314 -46.322484 
L 299.796694 -46.251044 
L 302.871074 -46.281661 
L 305.945455 -46.251044 
L 309.019835 -46.240838 
L 312.094215 -46.210221 
L 315.168595 -46.169398 
L 318.242975 -46.169398 
L 321.317355 -46.169398 
L 324.391736 -46.169398 
L 327.466116 -46.169398 
L 330.540496 -46.128575 
L 333.614876 -46.128575 
L 336.689256 -46.087752 
L 339.763636 -46.087752 
L 342.838017 -46.046929 
L 345.912397 -46.036723 
L 348.986777 -46.006106 
L 352.061157 -45.965282 
L 355.135537 -45.955077 
L 358.209917 -45.914254 
L 361.284298 -45.924459 
L 364.358678 -45.924459 
L 367.433058 -45.883636 
L 370.507438 -45.883636 
L 373.581818 -45.883636 
L 373.581818 -46.251044 
L 373.581818 -46.251044 
L 370.507438 -46.26125 
L 367.433058 -46.291867 
L 364.358678 -46.291867 
L 361.284298 -46.33269 
L 358.209917 -46.33269 
L 355.135537 -46.33269 
L 352.061157 -46.302073 
L 348.986777 -46.33269 
L 345.912397 -46.33269 
L 342.838017 -46.373513 
L 339.763636 -46.414336 
L 336.689256 -46.455159 
L 333.614876 -46.455159 
L 330.540496 -46.414336 
L 327.466116 -46.414336 
L 324.391736 -46.455159 
L 321.317355 -46.424542 
L 318.242975 -46.424542 
L 315.168595 -46.455159 
L 312.094215 -46.495982 
L 309.019835 -46.506188 
L 305.945455 -46.506188 
L 302.871074 -46.536805 
L 299.796694 -46.577628 
L 296.722314 -46.577628 
L 293.647934 -46.536805 
L 290.573554 -46.577628 
L 287.499174 -46.577628 
L 284.424793 -46.577628 
L 281.350413 -46.618451 
L 278.276033 -46.659274 
L 275.201653 -46.700097 
L 272.127273 -46.700097 
L 269.052893 -46.700097 
L 265.978512 -46.700097 
L 262.904132 -46.659274 
L 259.829752 -46.700097 
L 256.755372 -46.700097 
L 253.680992 -46.700097 
L 250.606612 -46.659274 
L 247.532231 -46.659274 
L 244.457851 -46.659274 
L 241.383471 -46.618451 
L 238.309091 -46.659274 
L 235.234711 -46.659274 
L 232.160331 -46.66948 
L 229.08595 -46.700097 
L 226.01157 -46.710303 
L 222.93719 -46.74092 
L 219.86281 -46.700097 
L 216.78843 -46.751126 
L 213.71405 -46.781743 
L 210.639669 -46.74092 
L 207.565289 -46.751126 
L 204.490909 -46.74092 
L 201.416529 -46.781743 
L 198.342149 -46.822567 
L 195.267769 -46.904213 
L 192.193388 -46.914418 
L 189.119008 -46.985859 
L 186.044628 -46.945036 
L 182.970248 -46.945036 
L 179.895868 -46.945036 
L 176.821488 -46.904213 
L 173.747107 -46.945036 
L 170.672727 -46.914418 
L 167.598347 -46.945036 
L 164.523967 -46.945036 
L 161.449587 -46.945036 
L 158.375207 -46.904213 
L 155.300826 -46.904213 
L 152.226446 -46.873595 
L 149.152066 -46.904213 
L 146.077686 -46.904213 
L 143.003306 -46.955241 
L 139.928926 -47.026682 
L 136.854545 -47.067505 
L 133.780165 -47.189974 
L 130.705785 -47.189974 
L 127.631405 -47.281826 
L 124.557025 -47.404295 
L 121.482645 -47.394089 
L 118.408264 -47.598205 
L 115.333884 -47.557381 
L 112.259504 -47.649233 
L 109.185124 -47.720674 
L 106.110744 -47.761497 
L 103.036364 -47.924789 
L 99.961983 -47.975818 
L 96.887603 -48.006435 
L 93.813223 -48.006435 
L 90.738843 -48.006435 
L 87.664463 -48.057464 
L 84.590083 -48.088081 
L 81.515702 -48.088081 
L 78.441322 -48.21055 
L 75.366942 -48.169727 
L 72.292562 -48.74125 
L 69.218182 -48.863719 
z
" style="stroke: #ff0000; stroke-opacity: 0.5"/>
    </defs>
    <g clip-path="url(#p9792f88c43)">
     <use xlink:href="#mda8b1fc313" x="0" y="288" style="fill: #ff0000; fill-opacity: 0.5; stroke: #ff0000; stroke-opacity: 0.5"/>
    </g>
   </g>
   <g id="matplotlib.axis_1">
    <g id="xtick_1">
     <g id="line2d_1">
      <defs>
       <path id="m3254ea8523" d="M 0 0 
L 0 3.5 
" style="stroke: #000000; stroke-width: 0.8"/>
      </defs>
      <g>
       <use xlink:href="#m3254ea8523" x="69.218182" y="252" style="stroke: #000000; stroke-width: 0.8"/>
      </g>
     </g>
     <g id="text_1">
      <!-- 0 -->
      <g transform="translate(66.036932 266.598437)scale(0.1 -0.1)">
       <defs>
        <path id="DejaVuSans-30" d="M 2034 4250 
Q 1547 4250 1301 3770 
Q 1056 3291 1056 2328 
Q 1056 1369 1301 889 
Q 1547 409 2034 409 
Q 2525 409 2770 889 
Q 3016 1369 3016 2328 
Q 3016 3291 2770 3770 
Q 2525 4250 2034 4250 
z
M 2034 4750 
Q 2819 4750 3233 4129 
Q 3647 3509 3647 2328 
Q 3647 1150 3233 529 
Q 2819 -91 2034 -91 
Q 1250 -91 836 529 
Q 422 1150 422 2328 
Q 422 3509 836 4129 
Q 1250 4750 2034 4750 
z
" transform="scale(0.015625)"/>
       </defs>
       <use xlink:href="#DejaVuSans-30"/>
      </g>
     </g>
    </g>
    <g id="xtick_2">
     <g id="line2d_2">
      <g>
       <use xlink:href="#m3254ea8523" x="130.705785" y="252" style="stroke: #000000; stroke-width: 0.8"/>
      </g>
     </g>
     <g id="text_2">
      <!-- 20 -->
      <g transform="translate(124.343285 266.598437)scale(0.1 -0.1)">
       <defs>
        <path id="DejaVuSans-32" d="M 1228 531 
L 3431 531 
L 3431 0 
L 469 0 
L 469 531 
Q 828 903 1448 1529 
Q 2069 2156 2228 2338 
Q 2531 2678 2651 2914 
Q 2772 3150 2772 3378 
Q 2772 3750 2511 3984 
Q 2250 4219 1831 4219 
Q 1534 4219 1204 4116 
Q 875 4013 500 3803 
L 500 4441 
Q 881 4594 1212 4672 
Q 1544 4750 1819 4750 
Q 2544 4750 2975 4387 
Q 3406 4025 3406 3419 
Q 3406 3131 3298 2873 
Q 3191 2616 2906 2266 
Q 2828 2175 2409 1742 
Q 1991 1309 1228 531 
z
" transform="scale(0.015625)"/>
       </defs>
       <use xlink:href="#DejaVuSans-32"/>
       <use xlink:href="#DejaVuSans-30" x="63.623047"/>
      </g>
     </g>
    </g>
    <g id="xtick_3">
     <g id="line2d_3">
      <g>
       <use xlink:href="#m3254ea8523" x="192.193388" y="252" style="stroke: #000000; stroke-width: 0.8"/>
      </g>
     </g>
     <g id="text_3">
      <!-- 40 -->
      <g transform="translate(185.830888 266.598437)scale(0.1 -0.1)">
       <defs>
        <path id="DejaVuSans-34" d="M 2419 4116 
L 825 1625 
L 2419 1625 
L 2419 4116 
z
M 2253 4666 
L 3047 4666 
L 3047 1625 
L 3713 1625 
L 3713 1100 
L 3047 1100 
L 3047 0 
L 2419 0 
L 2419 1100 
L 313 1100 
L 313 1709 
L 2253 4666 
z
" transform="scale(0.015625)"/>
       </defs>
       <use xlink:href="#DejaVuSans-34"/>
       <use xlink:href="#DejaVuSans-30" x="63.623047"/>
      </g>
     </g>
    </g>
    <g id="xtick_4">
     <g id="line2d_4">
      <g>
       <use xlink:href="#m3254ea8523" x="253.680992" y="252" style="stroke: #000000; stroke-width: 0.8"/>
      </g>
     </g>
     <g id="text_4">
      <!-- 60 -->
      <g transform="translate(247.318492 266.598437)scale(0.1 -0.1)">
       <defs>
        <path id="DejaVuSans-36" d="M 2113 2584 
Q 1688 2584 1439 2293 
Q 1191 2003 1191 1497 
Q 1191 994 1439 701 
Q 1688 409 2113 409 
Q 2538 409 2786 701 
Q 3034 994 3034 1497 
Q 3034 2003 2786 2293 
Q 2538 2584 2113 2584 
z
M 3366 4563 
L 3366 3988 
Q 3128 4100 2886 4159 
Q 2644 4219 2406 4219 
Q 1781 4219 1451 3797 
Q 1122 3375 1075 2522 
Q 1259 2794 1537 2939 
Q 1816 3084 2150 3084 
Q 2853 3084 3261 2657 
Q 3669 2231 3669 1497 
Q 3669 778 3244 343 
Q 2819 -91 2113 -91 
Q 1303 -91 875 529 
Q 447 1150 447 2328 
Q 447 3434 972 4092 
Q 1497 4750 2381 4750 
Q 2619 4750 2861 4703 
Q 3103 4656 3366 4563 
z
" transform="scale(0.015625)"/>
       </defs>
       <use xlink:href="#DejaVuSans-36"/>
       <use xlink:href="#DejaVuSans-30" x="63.623047"/>
      </g>
     </g>
    </g>
    <g id="xtick_5">
     <g id="line2d_5">
      <g>
       <use xlink:href="#m3254ea8523" x="315.168595" y="252" style="stroke: #000000; stroke-width: 0.8"/>
      </g>
     </g>
     <g id="text_5">
      <!-- 80 -->
      <g transform="translate(308.806095 266.598437)scale(0.1 -0.1)">
       <defs>
        <path id="DejaVuSans-38" d="M 2034 2216 
Q 1584 2216 1326 1975 
Q 1069 1734 1069 1313 
Q 1069 891 1326 650 
Q 1584 409 2034 409 
Q 2484 409 2743 651 
Q 3003 894 3003 1313 
Q 3003 1734 2745 1975 
Q 2488 2216 2034 2216 
z
M 1403 2484 
Q 997 2584 770 2862 
Q 544 3141 544 3541 
Q 544 4100 942 4425 
Q 1341 4750 2034 4750 
Q 2731 4750 3128 4425 
Q 3525 4100 3525 3541 
Q 3525 3141 3298 2862 
Q 3072 2584 2669 2484 
Q 3125 2378 3379 2068 
Q 3634 1759 3634 1313 
Q 3634 634 3220 271 
Q 2806 -91 2034 -91 
Q 1263 -91 848 271 
Q 434 634 434 1313 
Q 434 1759 690 2068 
Q 947 2378 1403 2484 
z
M 1172 3481 
Q 1172 3119 1398 2916 
Q 1625 2713 2034 2713 
Q 2441 2713 2670 2916 
Q 2900 3119 2900 3481 
Q 2900 3844 2670 4047 
Q 2441 4250 2034 4250 
Q 1625 4250 1398 4047 
Q 1172 3844 1172 3481 
z
" transform="scale(0.015625)"/>
       </defs>
       <use xlink:href="#DejaVuSans-38"/>
       <use xlink:href="#DejaVuSans-30" x="63.623047"/>
      </g>
     </g>
    </g>
    <g id="xtick_6">
     <g id="line2d_6">
      <g>
       <use xlink:href="#m3254ea8523" x="376.656198" y="252" style="stroke: #000000; stroke-width: 0.8"/>
      </g>
     </g>
     <g id="text_6">
      <!-- 100 -->
      <g transform="translate(367.112448 266.598437)scale(0.1 -0.1)">
       <defs>
        <path id="DejaVuSans-31" d="M 794 531 
L 1825 531 
L 1825 4091 
L 703 3866 
L 703 4441 
L 1819 4666 
L 2450 4666 
L 2450 531 
L 3481 531 
L 3481 0 
L 794 0 
L 794 531 
z
" transform="scale(0.015625)"/>
       </defs>
       <use xlink:href="#DejaVuSans-31"/>
       <use xlink:href="#DejaVuSans-30" x="63.623047"/>
       <use xlink:href="#DejaVuSans-30" x="127.246094"/>
      </g>
     </g>
    </g>
    <g id="text_7">
     <!-- Iterations -->
     <g transform="translate(197.586719 280.276563)scale(0.1 -0.1)">
      <defs>
       <path id="DejaVuSans-49" d="M 628 4666 
L 1259 4666 
L 1259 0 
L 628 0 
L 628 4666 
z
" transform="scale(0.015625)"/>
       <path id="DejaVuSans-74" d="M 1172 4494 
L 1172 3500 
L 2356 3500 
L 2356 3053 
L 1172 3053 
L 1172 1153 
Q 1172 725 1289 603 
Q 1406 481 1766 481 
L 2356 481 
L 2356 0 
L 1766 0 
Q 1100 0 847 248 
Q 594 497 594 1153 
L 594 3053 
L 172 3053 
L 172 3500 
L 594 3500 
L 594 4494 
L 1172 4494 
z
" transform="scale(0.015625)"/>
       <path id="DejaVuSans-65" d="M 3597 1894 
L 3597 1613 
L 953 1613 
Q 991 1019 1311 708 
Q 1631 397 2203 397 
Q 2534 397 2845 478 
Q 3156 559 3463 722 
L 3463 178 
Q 3153 47 2828 -22 
Q 2503 -91 2169 -91 
Q 1331 -91 842 396 
Q 353 884 353 1716 
Q 353 2575 817 3079 
Q 1281 3584 2069 3584 
Q 2775 3584 3186 3129 
Q 3597 2675 3597 1894 
z
M 3022 2063 
Q 3016 2534 2758 2815 
Q 2500 3097 2075 3097 
Q 1594 3097 1305 2825 
Q 1016 2553 972 2059 
L 3022 2063 
z
" transform="scale(0.015625)"/>
       <path id="DejaVuSans-72" d="M 2631 2963 
Q 2534 3019 2420 3045 
Q 2306 3072 2169 3072 
Q 1681 3072 1420 2755 
Q 1159 2438 1159 1844 
L 1159 0 
L 581 0 
L 581 3500 
L 1159 3500 
L 1159 2956 
Q 1341 3275 1631 3429 
Q 1922 3584 2338 3584 
Q 2397 3584 2469 3576 
Q 2541 3569 2628 3553 
L 2631 2963 
z
" transform="scale(0.015625)"/>
       <path id="DejaVuSans-61" d="M 2194 1759 
Q 1497 1759 1228 1600 
Q 959 1441 959 1056 
Q 959 750 1161 570 
Q 1363 391 1709 391 
Q 2188 391 2477 730 
Q 2766 1069 2766 1631 
L 2766 1759 
L 2194 1759 
z
M 3341 1997 
L 3341 0 
L 2766 0 
L 2766 531 
Q 2569 213 2275 61 
Q 1981 -91 1556 -91 
Q 1019 -91 701 211 
Q 384 513 384 1019 
Q 384 1609 779 1909 
Q 1175 2209 1959 2209 
L 2766 2209 
L 2766 2266 
Q 2766 2663 2505 2880 
Q 2244 3097 1772 3097 
Q 1472 3097 1187 3025 
Q 903 2953 641 2809 
L 641 3341 
Q 956 3463 1253 3523 
Q 1550 3584 1831 3584 
Q 2591 3584 2966 3190 
Q 3341 2797 3341 1997 
z
" transform="scale(0.015625)"/>
       <path id="DejaVuSans-69" d="M 603 3500 
L 1178 3500 
L 1178 0 
L 603 0 
L 603 3500 
z
M 603 4863 
L 1178 4863 
L 1178 4134 
L 603 4134 
L 603 4863 
z
" transform="scale(0.015625)"/>
       <path id="DejaVuSans-6f" d="M 1959 3097 
Q 1497 3097 1228 2736 
Q 959 2375 959 1747 
Q 959 1119 1226 758 
Q 1494 397 1959 397 
Q 2419 397 2687 759 
Q 2956 1122 2956 1747 
Q 2956 2369 2687 2733 
Q 2419 3097 1959 3097 
z
M 1959 3584 
Q 2709 3584 3137 3096 
Q 3566 2609 3566 1747 
Q 3566 888 3137 398 
Q 2709 -91 1959 -91 
Q 1206 -91 779 398 
Q 353 888 353 1747 
Q 353 2609 779 3096 
Q 1206 3584 1959 3584 
z
" transform="scale(0.015625)"/>
       <path id="DejaVuSans-6e" d="M 3513 2113 
L 3513 0 
L 2938 0 
L 2938 2094 
Q 2938 2591 2744 2837 
Q 2550 3084 2163 3084 
Q 1697 3084 1428 2787 
Q 1159 2491 1159 1978 
L 1159 0 
L 581 0 
L 581 3500 
L 1159 3500 
L 1159 2956 
Q 1366 3272 1645 3428 
Q 1925 3584 2291 3584 
Q 2894 3584 3203 3211 
Q 3513 2838 3513 2113 
z
" transform="scale(0.015625)"/>
       <path id="DejaVuSans-73" d="M 2834 3397 
L 2834 2853 
Q 2591 2978 2328 3040 
Q 2066 3103 1784 3103 
Q 1356 3103 1142 2972 
Q 928 2841 928 2578 
Q 928 2378 1081 2264 
Q 1234 2150 1697 2047 
L 1894 2003 
Q 2506 1872 2764 1633 
Q 3022 1394 3022 966 
Q 3022 478 2636 193 
Q 2250 -91 1575 -91 
Q 1294 -91 989 -36 
Q 684 19 347 128 
L 347 722 
Q 666 556 975 473 
Q 1284 391 1588 391 
Q 1994 391 2212 530 
Q 2431 669 2431 922 
Q 2431 1156 2273 1281 
Q 2116 1406 1581 1522 
L 1381 1569 
Q 847 1681 609 1914 
Q 372 2147 372 2553 
Q 372 3047 722 3315 
Q 1072 3584 1716 3584 
Q 2034 3584 2315 3537 
Q 2597 3491 2834 3397 
z
" transform="scale(0.015625)"/>
      </defs>
      <use xlink:href="#DejaVuSans-49"/>
      <use xlink:href="#DejaVuSans-74" x="29.492188"/>
      <use xlink:href="#DejaVuSans-65" x="68.701172"/>
      <use xlink:href="#DejaVuSans-72" x="130.224609"/>
      <use xlink:href="#DejaVuSans-61" x="171.337891"/>
      <use xlink:href="#DejaVuSans-74" x="232.617188"/>
      <use xlink:href="#DejaVuSans-69" x="271.826172"/>
      <use xlink:href="#DejaVuSans-6f" x="299.609375"/>
      <use xlink:href="#DejaVuSans-6e" x="360.791016"/>
      <use xlink:href="#DejaVuSans-73" x="424.169922"/>
     </g>
    </g>
   </g>
   <g id="matplotlib.axis_2">
    <g id="ytick_1">
     <g id="line2d_7">
      <defs>
       <path id="m575b88a64d" d="M 0 0 
L -3.5 0 
" style="stroke: #000000; stroke-width: 0.8"/>
      </defs>
      <g>
       <use xlink:href="#m575b88a64d" x="54" y="242.647063" style="stroke: #000000; stroke-width: 0.8"/>
      </g>
     </g>
     <g id="text_8">
      <!-- 0.0 -->
      <g transform="translate(31.096875 246.446282)scale(0.1 -0.1)">
       <defs>
        <path id="DejaVuSans-2e" d="M 684 794 
L 1344 794 
L 1344 0 
L 684 0 
L 684 794 
z
" transform="scale(0.015625)"/>
       </defs>
       <use xlink:href="#DejaVuSans-30"/>
       <use xlink:href="#DejaVuSans-2e" x="63.623047"/>
       <use xlink:href="#DejaVuSans-30" x="95.410156"/>
      </g>
     </g>
    </g>
    <g id="ytick_2">
     <g id="line2d_8">
      <g>
       <use xlink:href="#m575b88a64d" x="54" y="206.155338" style="stroke: #000000; stroke-width: 0.8"/>
      </g>
     </g>
     <g id="text_9">
      <!-- 0.1 -->
      <g transform="translate(31.096875 209.954556)scale(0.1 -0.1)">
       <use xlink:href="#DejaVuSans-30"/>
       <use xlink:href="#DejaVuSans-2e" x="63.623047"/>
       <use xlink:href="#DejaVuSans-31" x="95.410156"/>
      </g>
     </g>
    </g>
    <g id="ytick_3">
     <g id="line2d_9">
      <g>
       <use xlink:href="#m575b88a64d" x="54" y="169.663612" style="stroke: #000000; stroke-width: 0.8"/>
      </g>
     </g>
     <g id="text_10">
      <!-- 0.2 -->
      <g transform="translate(31.096875 173.462831)scale(0.1 -0.1)">
       <use xlink:href="#DejaVuSans-30"/>
       <use xlink:href="#DejaVuSans-2e" x="63.623047"/>
       <use xlink:href="#DejaVuSans-32" x="95.410156"/>
      </g>
     </g>
    </g>
    <g id="ytick_4">
     <g id="line2d_10">
      <g>
       <use xlink:href="#m575b88a64d" x="54" y="133.171886" style="stroke: #000000; stroke-width: 0.8"/>
      </g>
     </g>
     <g id="text_11">
      <!-- 0.3 -->
      <g transform="translate(31.096875 136.971105)scale(0.1 -0.1)">
       <defs>
        <path id="DejaVuSans-33" d="M 2597 2516 
Q 3050 2419 3304 2112 
Q 3559 1806 3559 1356 
Q 3559 666 3084 287 
Q 2609 -91 1734 -91 
Q 1441 -91 1130 -33 
Q 819 25 488 141 
L 488 750 
Q 750 597 1062 519 
Q 1375 441 1716 441 
Q 2309 441 2620 675 
Q 2931 909 2931 1356 
Q 2931 1769 2642 2001 
Q 2353 2234 1838 2234 
L 1294 2234 
L 1294 2753 
L 1863 2753 
Q 2328 2753 2575 2939 
Q 2822 3125 2822 3475 
Q 2822 3834 2567 4026 
Q 2313 4219 1838 4219 
Q 1578 4219 1281 4162 
Q 984 4106 628 3988 
L 628 4550 
Q 988 4650 1302 4700 
Q 1616 4750 1894 4750 
Q 2613 4750 3031 4423 
Q 3450 4097 3450 3541 
Q 3450 3153 3228 2886 
Q 3006 2619 2597 2516 
z
" transform="scale(0.015625)"/>
       </defs>
       <use xlink:href="#DejaVuSans-30"/>
       <use xlink:href="#DejaVuSans-2e" x="63.623047"/>
       <use xlink:href="#DejaVuSans-33" x="95.410156"/>
      </g>
     </g>
    </g>
    <g id="ytick_5">
     <g id="line2d_11">
      <g>
       <use xlink:href="#m575b88a64d" x="54" y="96.68016" style="stroke: #000000; stroke-width: 0.8"/>
      </g>
     </g>
     <g id="text_12">
      <!-- 0.4 -->
      <g transform="translate(31.096875 100.479379)scale(0.1 -0.1)">
       <use xlink:href="#DejaVuSans-30"/>
       <use xlink:href="#DejaVuSans-2e" x="63.623047"/>
       <use xlink:href="#DejaVuSans-34" x="95.410156"/>
      </g>
     </g>
    </g>
    <g id="ytick_6">
     <g id="line2d_12">
      <g>
       <use xlink:href="#m575b88a64d" x="54" y="60.188434" style="stroke: #000000; stroke-width: 0.8"/>
      </g>
     </g>
     <g id="text_13">
      <!-- 0.5 -->
      <g transform="translate(31.096875 63.987653)scale(0.1 -0.1)">
       <defs>
        <path id="DejaVuSans-35" d="M 691 4666 
L 3169 4666 
L 3169 4134 
L 1269 4134 
L 1269 2991 
Q 1406 3038 1543 3061 
Q 1681 3084 1819 3084 
Q 2600 3084 3056 2656 
Q 3513 2228 3513 1497 
Q 3513 744 3044 326 
Q 2575 -91 1722 -91 
Q 1428 -91 1123 -41 
Q 819 9 494 109 
L 494 744 
Q 775 591 1075 516 
Q 1375 441 1709 441 
Q 2250 441 2565 725 
Q 2881 1009 2881 1497 
Q 2881 1984 2565 2268 
Q 2250 2553 1709 2553 
Q 1456 2553 1204 2497 
Q 953 2441 691 2322 
L 691 4666 
z
" transform="scale(0.015625)"/>
       </defs>
       <use xlink:href="#DejaVuSans-30"/>
       <use xlink:href="#DejaVuSans-2e" x="63.623047"/>
       <use xlink:href="#DejaVuSans-35" x="95.410156"/>
      </g>
     </g>
    </g>
    <g id="text_14">
     <!-- Loss -->
     <g transform="translate(25.017187 154.247187)rotate(-90)scale(0.1 -0.1)">
      <defs>
       <path id="DejaVuSans-4c" d="M 628 4666 
L 1259 4666 
L 1259 531 
L 3531 531 
L 3531 0 
L 628 0 
L 628 4666 
z
" transform="scale(0.015625)"/>
      </defs>
      <use xlink:href="#DejaVuSans-4c"/>
      <use xlink:href="#DejaVuSans-6f" x="53.962891"/>
      <use xlink:href="#DejaVuSans-73" x="115.144531"/>
      <use xlink:href="#DejaVuSans-73" x="167.244141"/>
     </g>
    </g>
   </g>
   <g id="line2d_13">
    <path d="M 69.218182 239.477142 
L 72.292562 238.890226 
L 75.366942 238.274726 
L 78.441322 237.967928 
L 81.515702 237.62302 
L 84.590083 237.434368 
L 87.664463 237.142815 
L 90.738843 236.820773 
L 93.813223 236.80267 
L 96.887603 236.216707 
L 99.961983 235.765086 
L 103.036364 235.408744 
L 106.110744 234.793244 
L 109.185124 234.017675 
L 112.259504 233.378356 
L 115.333884 232.7438 
L 118.408264 231.912017 
L 121.482645 231.347967 
L 124.557025 230.927788 
L 127.631405 230.439962 
L 130.705785 229.853045 
L 133.780165 229.258506 
L 136.854545 228.665873 
L 139.928926 228.279995 
L 143.003306 227.795026 
L 146.077686 227.254796 
L 149.152066 226.604043 
L 152.226446 226.02856 
L 155.300826 225.458794 
L 158.375207 224.886169 
L 161.449587 224.331647 
L 164.523967 223.726628 
L 167.598347 223.278818 
L 170.672727 222.609962 
L 173.747107 221.938247 
L 176.821488 221.054061 
L 179.895868 220.224184 
L 182.970248 219.192316 
L 186.044628 217.929874 
L 189.119008 216.776049 
L 192.193388 215.675581 
L 195.267769 214.255929 
L 198.342149 213.043984 
L 201.416529 212.103584 
L 204.490909 211.023124 
L 207.565289 209.793077 
L 210.639669 208.649733 
L 213.71405 207.401582 
L 216.78843 206.312547 
L 219.86281 205.072972 
L 222.93719 203.642839 
L 226.01157 202.14887 
L 229.08595 200.788291 
L 232.160331 199.350536 
L 235.234711 198.058557 
L 238.309091 196.652244 
L 241.383471 195.224017 
L 244.457851 193.87106 
L 247.532231 192.388524 
L 250.606612 190.814521 
L 253.680992 189.165247 
L 256.755372 187.450232 
L 259.829752 185.540847 
L 262.904132 183.542854 
L 265.978512 181.470543 
L 269.052893 179.471597 
L 272.127273 177.468839 
L 275.201653 175.366992 
L 278.276033 173.158433 
L 281.350413 170.893659 
L 284.424793 168.560285 
L 287.499174 166.222147 
L 290.573554 163.817313 
L 293.647934 161.115211 
L 296.722314 158.50267 
L 299.796694 155.838679 
L 302.871074 153.020336 
L 305.945455 149.966655 
L 309.019835 146.806262 
L 312.094215 143.447689 
L 315.168595 139.995743 
L 318.242975 136.405644 
L 321.317355 132.611648 
L 324.391736 128.863385 
L 327.466116 124.775931 
L 330.540496 120.46743 
L 333.614876 116.054122 
L 336.689256 111.373082 
L 339.763636 106.676797 
L 342.838017 101.903336 
L 345.912397 96.986005 
L 348.986777 92.140132 
L 352.061157 86.883609 
L 355.135537 81.823359 
L 358.209917 76.533488 
L 361.284298 71.051154 
L 364.358678 65.526898 
L 367.433058 60.046469 
L 370.507438 54.257338 
L 373.581818 48.646378 
" clip-path="url(#p9792f88c43)" style="fill: none; stroke: #000000; stroke-width: 1.5; stroke-linecap: square"/>
   </g>
   <g id="line2d_14">
    <path d="M 69.218182 239.639116 
L 72.292562 238.893084 
L 75.366942 238.291876 
L 78.441322 238.072735 
L 81.515702 237.873603 
L 84.590083 237.972692 
L 87.664463 237.645887 
L 90.738843 237.583003 
L 93.813223 237.396256 
L 96.887603 237.385776 
L 99.961983 237.235236 
L 103.036364 237.09994 
L 106.110744 236.764559 
L 109.185124 236.355814 
L 112.259504 236.121428 
L 115.333884 235.851789 
L 118.408264 235.596443 
L 121.482645 235.296315 
L 124.557025 234.974273 
L 127.631405 234.528369 
L 130.705785 233.707067 
L 133.780165 233.163979 
L 136.854545 232.571345 
L 139.928926 232.124488 
L 143.003306 231.846275 
L 146.077686 231.497555 
L 149.152066 231.10596 
L 152.226446 230.922072 
L 155.300826 230.551438 
L 158.375207 230.311336 
L 161.449587 230.016924 
L 164.523967 229.702505 
L 167.598347 229.535767 
L 170.672727 229.282326 
L 173.747107 228.923126 
L 176.821488 228.489608 
L 179.895868 228.081815 
L 182.970248 227.611138 
L 186.044628 227.351028 
L 189.119008 226.928943 
L 192.193388 226.44588 
L 195.267769 226.087633 
L 198.342149 225.668407 
L 201.416529 225.060529 
L 204.490909 224.537449 
L 207.565289 223.899082 
L 210.639669 223.270243 
L 213.71405 222.519447 
L 216.78843 221.786754 
L 219.86281 221.145529 
L 222.93719 220.39378 
L 226.01157 219.903095 
L 229.08595 219.538178 
L 232.160331 219.106565 
L 235.234711 218.734979 
L 238.309091 218.312894 
L 241.383471 217.771711 
L 244.457851 217.283885 
L 247.532231 216.775097 
L 250.606612 216.255828 
L 253.680992 215.813735 
L 256.755372 215.296372 
L 259.829752 214.873335 
L 262.904132 214.328341 
L 265.978512 213.865286 
L 269.052893 213.500369 
L 272.127273 213.041126 
L 275.201653 212.672398 
L 278.276033 212.287472 
L 281.350413 211.790117 
L 284.424793 211.259415 
L 287.499174 210.766825 
L 290.573554 210.35141 
L 293.647934 209.98554 
L 296.722314 209.666356 
L 299.796694 209.320495 
L 302.871074 208.79932 
L 305.945455 208.420111 
L 309.019835 208.037091 
L 312.094215 207.589281 
L 315.168595 207.087163 
L 318.242975 206.705095 
L 321.317355 206.22108 
L 324.391736 205.71515 
L 327.466116 205.236851 
L 330.540496 204.748072 
L 333.614876 204.246906 
L 336.689256 203.881036 
L 339.763636 203.412265 
L 342.838017 203.050206 
L 345.912397 202.603349 
L 348.986777 202.159351 
L 352.061157 201.693438 
L 355.135537 201.209422 
L 358.209917 200.684437 
L 361.284298 200.17946 
L 364.358678 199.678294 
L 367.433058 199.211429 
L 370.507438 198.690255 
L 373.581818 198.16908 
" clip-path="url(#p9792f88c43)" style="fill: none; stroke: #ff0000; stroke-width: 1.5; stroke-linecap: square"/>
   </g>
   <g id="line2d_15">
    <path d="M 69.218182 239.382852 
L 72.292562 239.400406 
L 75.366942 239.795573 
L 78.441322 240.012752 
L 81.515702 240.149917 
L 84.590083 240.249525 
L 87.664463 240.283 
L 90.738843 240.42833 
L 93.813223 240.522632 
L 96.887603 240.629588 
L 99.961983 240.626322 
L 103.036364 240.693272 
L 106.110744 240.835336 
L 109.185124 240.854115 
L 112.259504 240.938619 
L 115.333884 240.951682 
L 118.408264 240.974543 
L 121.482645 241.040268 
L 124.557025 241.097829 
L 127.631405 241.134977 
L 130.705785 241.17131 
L 133.780165 241.213358 
L 136.854545 241.236627 
L 139.928926 241.252956 
L 143.003306 241.211317 
L 146.077686 241.218257 
L 149.152066 241.220706 
L 152.226446 241.234994 
L 155.300826 241.236627 
L 158.375207 241.211725 
L 161.449587 241.229687 
L 164.523967 241.26357 
L 167.598347 241.273776 
L 170.672727 241.246016 
L 173.747107 241.25663 
L 176.821488 241.275409 
L 179.895868 241.273776 
L 182.970248 241.257855 
L 186.044628 241.238668 
L 189.119008 241.205601 
L 192.193388 241.227238 
L 195.267769 241.231728 
L 198.342149 241.226013 
L 201.416529 241.245608 
L 204.490909 241.260304 
L 207.565289 241.279899 
L 210.639669 241.307659 
L 213.71405 241.329295 
L 216.78843 241.323988 
L 219.86281 241.321539 
L 222.93719 241.311741 
L 226.01157 241.303577 
L 229.08595 241.310108 
L 232.160331 241.312966 
L 235.234711 241.333786 
L 238.309091 241.372568 
L 241.383471 241.415432 
L 244.457851 241.445233 
L 247.532231 241.463195 
L 250.606612 241.446866 
L 253.680992 241.427271 
L 256.755372 241.421555 
L 259.829752 241.41584 
L 262.904132 241.403185 
L 265.978512 241.411758 
L 269.052893 241.406859 
L 272.127273 241.400736 
L 275.201653 241.385223 
L 278.276033 241.366444 
L 281.350413 241.371343 
L 284.424793 241.351748 
L 287.499174 241.339909 
L 290.573554 241.323172 
L 293.647934 241.285206 
L 296.722314 241.241526 
L 299.796694 241.179475 
L 302.871074 241.108034 
L 305.945455 241.034145 
L 309.019835 240.990872 
L 312.094215 240.928005 
L 315.168595 240.872893 
L 318.242975 240.797779 
L 321.317355 240.738177 
L 324.391736 240.640202 
L 327.466116 240.55529 
L 330.540496 240.459764 
L 333.614876 240.362605 
L 336.689256 240.245035 
L 339.763636 240.140528 
L 342.838017 240.016018 
L 345.912397 239.889058 
L 348.986777 239.759241 
L 352.061157 239.620034 
L 355.135537 239.498381 
L 358.209917 239.337539 
L 361.284298 239.186901 
L 364.358678 239.055451 
L 367.433058 238.900324 
L 370.507438 238.761525 
L 373.581818 238.627626 
" clip-path="url(#p9792f88c43)" style="fill: none; stroke-dasharray: 5.55,2.4; stroke-dashoffset: 0; stroke: #000000; stroke-width: 1.5"/>
   </g>
   <g id="line2d_16">
    <path d="M 69.218182 239.26569 
L 72.292562 239.584518 
L 75.366942 239.890691 
L 78.441322 239.998872 
L 81.515702 240.046635 
L 84.590083 240.009486 
L 87.664463 240.096031 
L 90.738843 240.142569 
L 93.813223 240.215234 
L 96.887603 240.313209 
L 99.961983 240.369137 
L 103.036364 240.334437 
L 106.110744 240.409552 
L 109.185124 240.487116 
L 112.259504 240.603053 
L 115.333884 240.647142 
L 118.408264 240.723889 
L 121.482645 240.844726 
L 124.557025 240.871669 
L 127.631405 240.963929 
L 130.705785 240.993321 
L 133.780165 241.033736 
L 136.854545 241.142326 
L 139.928926 241.166411 
L 143.003306 241.182332 
L 146.077686 241.20601 
L 149.152066 241.230503 
L 152.226446 241.226013 
L 155.300826 241.205193 
L 158.375207 241.215399 
L 161.449587 241.183149 
L 164.523967 241.163554 
L 167.598347 241.181924 
L 170.672727 241.214991 
L 173.747107 241.204377 
L 176.821488 241.230095 
L 179.895868 241.221114 
L 182.970248 241.244791 
L 186.044628 241.255814 
L 189.119008 241.259896 
L 192.193388 241.282349 
L 195.267769 241.277042 
L 198.342149 241.30276 
L 201.416529 241.314191 
L 204.490909 241.317048 
L 207.565289 241.321539 
L 210.639669 241.350523 
L 213.71405 241.34195 
L 216.78843 241.339909 
L 219.86281 241.381549 
L 222.93719 241.406043 
L 226.01157 241.414207 
L 229.08595 241.418698 
L 232.160331 241.421555 
L 235.234711 241.451764 
L 238.309091 241.466869 
L 241.383471 241.460745 
L 244.457851 241.464011 
L 247.532231 241.476258 
L 250.606612 241.480749 
L 253.680992 241.476666 
L 256.755372 241.470135 
L 259.829752 241.46197 
L 262.904132 241.466052 
L 265.978512 241.476258 
L 269.052893 241.497486 
L 272.127273 241.502385 
L 275.201653 241.507284 
L 278.276033 241.515448 
L 281.350413 241.524838 
L 284.424793 241.530553 
L 287.499174 241.545249 
L 290.573554 241.536268 
L 293.647934 241.544024 
L 296.722314 241.546066 
L 299.796694 241.559129 
L 302.871074 241.578724 
L 305.945455 241.599136 
L 309.019835 241.620364 
L 312.094215 241.637917 
L 315.168595 241.664861 
L 318.242975 241.677924 
L 321.317355 241.684864 
L 324.391736 241.697111 
L 327.466116 241.704051 
L 330.540496 241.707317 
L 333.614876 241.703234 
L 336.689256 241.724462 
L 339.763636 241.74569 
L 342.838017 241.775899 
L 345.912397 241.794678 
L 348.986777 241.808558 
L 352.061157 241.825704 
L 355.135537 241.836726 
L 358.209917 241.857545 
L 361.284298 241.870609 
L 364.358678 241.890204 
L 367.433058 241.900001 
L 370.507438 241.909391 
L 373.581818 241.916331 
" clip-path="url(#p9792f88c43)" style="fill: none; stroke-dasharray: 5.55,2.4; stroke-dashoffset: 0; stroke: #ff0000; stroke-width: 1.5"/>
   </g>
   <g id="patch_3">
    <path d="M 54 252 
L 54 34.56 
" style="fill: none; stroke: #000000; stroke-width: 0.8; stroke-linejoin: miter; stroke-linecap: square"/>
   </g>
   <g id="patch_4">
    <path d="M 388.8 252 
L 388.8 34.56 
" style="fill: none; stroke: #000000; stroke-width: 0.8; stroke-linejoin: miter; stroke-linecap: square"/>
   </g>
   <g id="patch_5">
    <path d="M 54 252 
L 388.8 252 
" style="fill: none; stroke: #000000; stroke-width: 0.8; stroke-linejoin: miter; stroke-linecap: square"/>
   </g>
   <g id="patch_6">
    <path d="M 54 34.56 
L 388.8 34.56 
" style="fill: none; stroke: #000000; stroke-width: 0.8; stroke-linejoin: miter; stroke-linecap: square"/>
   </g>
   <g id="legend_1">
    <g id="patch_7">
     <path d="M 61 101.2725 
L 166.570312 101.2725 
Q 168.570312 101.2725 168.570312 99.2725 
L 168.570312 41.56 
Q 168.570312 39.56 166.570312 39.56 
L 61 39.56 
Q 59 39.56 59 41.56 
L 59 99.2725 
Q 59 101.2725 61 101.2725 
z
" style="fill: #ffffff; opacity: 0.8; stroke: #cccccc; stroke-linejoin: miter"/>
    </g>
    <g id="line2d_17">
     <path d="M 63 47.658437 
L 73 47.658437 
L 83 47.658437 
" style="fill: none; stroke: #000000; stroke-width: 1.5; stroke-linecap: square"/>
    </g>
    <g id="text_15">
     <!-- Unconstr. train -->
     <g transform="translate(91 51.158437)scale(0.1 -0.1)">
      <defs>
       <path id="DejaVuSans-55" d="M 556 4666 
L 1191 4666 
L 1191 1831 
Q 1191 1081 1462 751 
Q 1734 422 2344 422 
Q 2950 422 3222 751 
Q 3494 1081 3494 1831 
L 3494 4666 
L 4128 4666 
L 4128 1753 
Q 4128 841 3676 375 
Q 3225 -91 2344 -91 
Q 1459 -91 1007 375 
Q 556 841 556 1753 
L 556 4666 
z
" transform="scale(0.015625)"/>
       <path id="DejaVuSans-63" d="M 3122 3366 
L 3122 2828 
Q 2878 2963 2633 3030 
Q 2388 3097 2138 3097 
Q 1578 3097 1268 2742 
Q 959 2388 959 1747 
Q 959 1106 1268 751 
Q 1578 397 2138 397 
Q 2388 397 2633 464 
Q 2878 531 3122 666 
L 3122 134 
Q 2881 22 2623 -34 
Q 2366 -91 2075 -91 
Q 1284 -91 818 406 
Q 353 903 353 1747 
Q 353 2603 823 3093 
Q 1294 3584 2113 3584 
Q 2378 3584 2631 3529 
Q 2884 3475 3122 3366 
z
" transform="scale(0.015625)"/>
       <path id="DejaVuSans-20" transform="scale(0.015625)"/>
      </defs>
      <use xlink:href="#DejaVuSans-55"/>
      <use xlink:href="#DejaVuSans-6e" x="73.193359"/>
      <use xlink:href="#DejaVuSans-63" x="136.572266"/>
      <use xlink:href="#DejaVuSans-6f" x="191.552734"/>
      <use xlink:href="#DejaVuSans-6e" x="252.734375"/>
      <use xlink:href="#DejaVuSans-73" x="316.113281"/>
      <use xlink:href="#DejaVuSans-74" x="368.212891"/>
      <use xlink:href="#DejaVuSans-72" x="407.421875"/>
      <use xlink:href="#DejaVuSans-2e" x="439.410156"/>
      <use xlink:href="#DejaVuSans-20" x="471.197266"/>
      <use xlink:href="#DejaVuSans-74" x="502.984375"/>
      <use xlink:href="#DejaVuSans-72" x="542.193359"/>
      <use xlink:href="#DejaVuSans-61" x="583.306641"/>
      <use xlink:href="#DejaVuSans-69" x="644.585938"/>
      <use xlink:href="#DejaVuSans-6e" x="672.369141"/>
     </g>
    </g>
    <g id="line2d_18">
     <path d="M 63 62.336562 
L 73 62.336562 
L 83 62.336562 
" style="fill: none; stroke: #ff0000; stroke-width: 1.5; stroke-linecap: square"/>
    </g>
    <g id="text_16">
     <!-- Constr. train -->
     <g transform="translate(91 65.836562)scale(0.1 -0.1)">
      <defs>
       <path id="DejaVuSans-43" d="M 4122 4306 
L 4122 3641 
Q 3803 3938 3442 4084 
Q 3081 4231 2675 4231 
Q 1875 4231 1450 3742 
Q 1025 3253 1025 2328 
Q 1025 1406 1450 917 
Q 1875 428 2675 428 
Q 3081 428 3442 575 
Q 3803 722 4122 1019 
L 4122 359 
Q 3791 134 3420 21 
Q 3050 -91 2638 -91 
Q 1578 -91 968 557 
Q 359 1206 359 2328 
Q 359 3453 968 4101 
Q 1578 4750 2638 4750 
Q 3056 4750 3426 4639 
Q 3797 4528 4122 4306 
z
" transform="scale(0.015625)"/>
      </defs>
      <use xlink:href="#DejaVuSans-43"/>
      <use xlink:href="#DejaVuSans-6f" x="69.824219"/>
      <use xlink:href="#DejaVuSans-6e" x="131.005859"/>
      <use xlink:href="#DejaVuSans-73" x="194.384766"/>
      <use xlink:href="#DejaVuSans-74" x="246.484375"/>
      <use xlink:href="#DejaVuSans-72" x="285.693359"/>
      <use xlink:href="#DejaVuSans-2e" x="317.681641"/>
      <use xlink:href="#DejaVuSans-20" x="349.46875"/>
      <use xlink:href="#DejaVuSans-74" x="381.255859"/>
      <use xlink:href="#DejaVuSans-72" x="420.464844"/>
      <use xlink:href="#DejaVuSans-61" x="461.578125"/>
      <use xlink:href="#DejaVuSans-69" x="522.857422"/>
      <use xlink:href="#DejaVuSans-6e" x="550.640625"/>
     </g>
    </g>
    <g id="line2d_19">
     <path d="M 63 77.014687 
L 73 77.014687 
L 83 77.014687 
" style="fill: none; stroke-dasharray: 5.55,2.4; stroke-dashoffset: 0; stroke: #000000; stroke-width: 1.5"/>
    </g>
    <g id="text_17">
     <!-- Unconstr. test -->
     <g transform="translate(91 80.514687)scale(0.1 -0.1)">
      <use xlink:href="#DejaVuSans-55"/>
      <use xlink:href="#DejaVuSans-6e" x="73.193359"/>
      <use xlink:href="#DejaVuSans-63" x="136.572266"/>
      <use xlink:href="#DejaVuSans-6f" x="191.552734"/>
      <use xlink:href="#DejaVuSans-6e" x="252.734375"/>
      <use xlink:href="#DejaVuSans-73" x="316.113281"/>
      <use xlink:href="#DejaVuSans-74" x="368.212891"/>
      <use xlink:href="#DejaVuSans-72" x="407.421875"/>
      <use xlink:href="#DejaVuSans-2e" x="439.410156"/>
      <use xlink:href="#DejaVuSans-20" x="471.197266"/>
      <use xlink:href="#DejaVuSans-74" x="502.984375"/>
      <use xlink:href="#DejaVuSans-65" x="542.193359"/>
      <use xlink:href="#DejaVuSans-73" x="603.716797"/>
      <use xlink:href="#DejaVuSans-74" x="655.816406"/>
     </g>
    </g>
    <g id="line2d_20">
     <path d="M 63 91.692813 
L 73 91.692813 
L 83 91.692813 
" style="fill: none; stroke-dasharray: 5.55,2.4; stroke-dashoffset: 0; stroke: #ff0000; stroke-width: 1.5"/>
    </g>
    <g id="text_18">
     <!-- Constr. test -->
     <g transform="translate(91 95.192813)scale(0.1 -0.1)">
      <use xlink:href="#DejaVuSans-43"/>
      <use xlink:href="#DejaVuSans-6f" x="69.824219"/>
      <use xlink:href="#DejaVuSans-6e" x="131.005859"/>
      <use xlink:href="#DejaVuSans-73" x="194.384766"/>
      <use xlink:href="#DejaVuSans-74" x="246.484375"/>
      <use xlink:href="#DejaVuSans-72" x="285.693359"/>
      <use xlink:href="#DejaVuSans-2e" x="317.681641"/>
      <use xlink:href="#DejaVuSans-20" x="349.46875"/>
      <use xlink:href="#DejaVuSans-74" x="381.255859"/>
      <use xlink:href="#DejaVuSans-65" x="420.464844"/>
      <use xlink:href="#DejaVuSans-73" x="481.988281"/>
      <use xlink:href="#DejaVuSans-74" x="534.087891"/>
     </g>
    </g>
   </g>
  </g>
 </g>
 <defs>
  <clipPath id="p9792f88c43">
   <rect x="54" y="34.56" width="334.8" height="217.44"/>
  </clipPath>
 </defs>
</svg>
